<svg id="Capa_1" enable-background="new 0 0 512 512" height="512" viewBox="0 0 512 512" width="512" xmlns="http://www.w3.org/2000/svg"><g><path d="m271 116v78.43c-6.562-5.78-8.612-10.86-15-10.86-6.386 0-8.437 5.079-15 10.86v-78.43z" fill="#0066b2"/><path d="m271 116v78.43c-6.56-5.78-8.61-10.86-15-10.86v-67.57z" fill="#004692"/><path d="m271 317.57v78.43h-30v-78.43c6.562 5.78 8.612 10.86 15 10.86 6.386 0 8.437-5.079 15-10.86z" fill="#0066b2"/><path d="m271 317.57v78.43h-15v-67.57c6.39 0 8.44-5.08 15-10.86z" fill="#004692"/><path d="m30 270v167.38h126v30h-141c-8.28 0-15-6.71-15-15v-197.38c0-8.28 6.72-15 15-15h180.43l-8.93 8.93c-3.908 3.908-3.911 10.229 0 14.14l6.93 6.93z" fill="#0066b2"/><path d="m512 255v197.38c0 8.29-6.72 15-15 15h-141v-30h126v-167.38h-163.43l6.93-6.93c3.908-3.908 3.911-10.229 0-14.14l-8.93-8.93h180.43c8.28 0 15 6.72 15 15z" fill="#004692"/><path d="m346 0h-180c-8.284 0-15 6.716-15 15v91c0 8.284 6.716 15 15 15h180c8.284 0 15-6.716 15-15v-91c0-8.284-6.716-15-15-15z" fill="#ffda2d"/><path d="m361 15v91c0 8.28-6.72 15-15 15h-90v-121h90c8.28 0 15 6.72 15 15z" fill="#ffaa17"/><path d="m346 391h-180c-8.284 0-15 6.716-15 15v91c0 8.284 6.716 15 15 15h180c8.284 0 15-6.716 15-15v-91c0-8.284-6.716-15-15-15z" fill="#00e97b"/><path d="m361 406v91c0 8.28-6.72 15-15 15h-90v-121h90c8.28 0 15 6.72 15 15z" fill="#00ca7d"/><path d="m329.033 245.394-62.427-62.427c-2.813-2.813-6.628-4.394-10.606-4.394s-7.794 1.581-10.606 4.394l-62.427 62.427c-5.858 5.858-5.858 15.355 0 21.213l62.427 62.427c2.813 2.813 6.628 4.394 10.606 4.394s7.794-1.581 10.606-4.394l62.427-62.427c5.859-5.858 5.859-15.356 0-21.213z" fill="#e63950"/><path d="m329.03 266.61-62.42 62.42c-2.82 2.82-6.63 4.4-10.61 4.4v-154.86c3.98 0 7.79 1.58 10.61 4.4l62.42 62.42c5.86 5.86 5.86 15.36 0 21.22z" fill="#cd0000"/></g></svg>