<svg id="Capa_1" enable-background="new 0 0 512 512" height="512" viewBox="0 0 512 512" width="512" xmlns="http://www.w3.org/2000/svg"><g><path d="m505.51 448.35-64.34 44.35c-9.873 6.815-23.52-.222-23.52-12.35v-29.35h-92.25c2.07-9.521 2.197-19.893 0-30h92.25v-29.35c0-12.029 13.549-19.215 23.52-12.35l64.34 44.35c8.654 5.968 8.636 18.744 0 24.7z" fill="#00204d"/><path d="m451 76v110.6c-9.52-2.07-19.89-2.2-30 0v-95.6h-95.6c2.07-9.521 2.197-19.893 0-30h110.6c8.28 0 15 6.72 15 15z" fill="#00204d"/><path d="m366.6 271h-221.2c2.07-9.52 2.2-19.89 0-30h221.2c-2.07 9.521-2.197 19.893 0 30z" fill="#004692"/><path d="m366.6 271h-110.6v-30h110.6c-2.07 9.52-2.2 19.89 0 30z" fill="#00204d"/><path d="m186.6 451h-110.6c-8.28 0-15-6.72-15-15v-110.6c9.522 2.07 19.893 2.197 30 0v95.6h95.6c-2.07 9.52-2.2 19.89 0 30z" fill="#004692"/><circle cx="256" cy="76" fill="#e63950" r="76"/><path d="m332 76c0 41.91-34.09 76-76 76v-152c41.91 0 76 34.09 76 76z" fill="#cd0000"/><circle cx="256" cy="436" fill="#00e97b" r="76"/><path d="m332 436c0 41.91-34.09 76-76 76v-152c41.91 0 76 34.09 76 76z" fill="#00ca7d"/><circle cx="436" cy="256" fill="#0095ff" r="76"/><circle cx="76" cy="256" fill="#ffaa17" r="76"/><path d="m173.858 63.649-64.347-44.347c-4.59-3.163-10.555-3.52-15.487-.928-4.934 2.592-8.024 7.706-8.024 13.279v29.347h-47.347c-8.284 0-15 6.716-15 15s6.716 15 15 15h47.347v29.347c0 5.573 3.09 10.688 8.024 13.279 2.191 1.151 4.587 1.721 6.975 1.721 2.987 0 5.963-.891 8.513-2.649l64.347-44.347c4.063-2.8 6.488-7.417 6.488-12.351s-2.426-9.551-6.489-12.351z" fill="#004692"/></g></svg>