<svg id="Capa_1" enable-background="new 0 0 511.667 511.667" height="512" viewBox="0 0 511.667 511.667" width="512" xmlns="http://www.w3.org/2000/svg"><g><path d="m359.361 70.91-3.615-53.878c-.26-3.88 3.362-6.872 7.124-5.883l34.967 9.194c3.832 1.008 5.487 5.527 3.211 8.77l-31.352 44.684c-3.083 4.393-9.976 2.468-10.335-2.887z" fill="#fe7d43"/><path d="m401.044 29.111-31.351 44.686c-3.076 4.394-9.97 2.469-10.33-2.891l-.916-13.726 27.956-39.84 11.431 3.004c3.837 1.009 5.494 5.526 3.21 8.767z" fill="#fd6930"/><path d="m403.601 95.315 57.555-62.732c2.746-2.993 7.654-2.227 9.358 1.461l21.958 47.544c1.551 3.358-.464 7.28-4.098 7.974l-79.513 15.188c-5.381 1.028-8.963-5.398-5.26-9.435z" fill="#fe7d43"/><path d="m488.378 89.56-79.515 15.187c-5.381 1.029-8.962-5.392-5.258-9.435l12.018-13.098 69.555-13.283c.453-.082.875-.226 1.266-.401l6.029 13.057c1.554 3.364-.462 7.284-4.095 7.973z" fill="#fd6930"/><path d="m81.464 313.414 91.526-22.393c3.185-.779 6.369 1.283 6.96 4.508l8.438 56.363c4.588 25.033-10.835 49.389-35.427 55.943-24.322 6.482-49.584-6.602-58.322-30.208l-17.165-56.699c-1.183-3.194.682-6.705 3.99-7.514z" fill="#7acaa6"/><g><path d="m164.052 251.109c-17.365 4.246-76.211 20.475-93.7 25.31-2.803.775-5.74-.688-6.81-3.391-26.335-66.537-48.234-99.811-44.452-155.169 3.267-47.83 25.974-96.054 73.521-113.75 38.287-14.25 70.232 10.402 83.509 45.746 17.096 45.513 1.952 92.325-4.96 138.143-1.938 12.844-3.171 25.022-3.344 37.964-.027 2.053.341 12.995.566 19.424.095 2.696-1.708 5.082-4.33 5.723z" fill="#7acaa6"/></g><g fill="#7acaa6"><path d="m257.866 351.86c17.011 5.493 74.528 25.942 91.62 32.031 2.739.976 5.774-.27 7.037-2.889 31.086-64.454 55.337-96.054 55.576-151.54.203-47.186-20.149-98.233-65.088-118.778-37.155-16.986-70.802 5.287-86.603 39.576-20.348 44.155-8.635 91.941-5.06 138.139 1.002 12.951 1.351 25.186.585 38.107-.121 2.05-1.281 12.936-1.971 19.332-.289 2.683 1.336 5.193 3.904 6.022z"/><path d="m335.725 419.984-89.663-28.964c-3.12-1.008-6.445.818-7.269 3.992l-12.499 55.604c-6.39 24.635 7.229 50.044 31.282 58.362 23.789 8.227 49.932-2.993 60.357-25.904l21.227-55.306c1.411-3.1-.194-6.737-3.435-7.784z"/></g><g fill="#57be92"><g><path d="m167.818 225.964c-.031 2.048.34 12.995.566 19.426.093 2.696-1.708 5.083-4.332 5.721-3.982.967-10.135 2.572-17.471 4.517 1.358-1.091 2.171-2.789 2.109-4.62-.226-6.431-.597-17.368-.566-19.426.165-12.944 1.399-25.116 3.334-37.957 6.914-45.818 22.06-92.634 4.97-138.143-11.524-30.662-37.093-53.278-68.67-49.419 1.585-.689 3.21-1.338 4.856-1.955 38.286-14.251 70.234 10.402 83.507 45.746 17.09 45.509 1.955 92.325-4.959 138.143-1.944 12.841-3.169 25.024-3.344 37.967z"/><path d="m152.961 407.836c-3.817 1.019-7.645 1.554-11.442 1.646 19.683-9.26 31.228-30.826 27.174-52.928l-8.437-56.354c-.514-2.789-2.953-4.702-5.649-4.682l18.387-4.497c3.179-.782 6.369 1.286 6.956 4.507l8.437 56.364c4.588 25.035-10.835 49.39-35.426 55.944z"/></g><g><path d="m412.105 229.463c-.247 55.49-24.499 87.088-55.582 151.539-1.266 2.624-4.301 3.869-7.038 2.891-3.807-1.358-9.61-3.426-16.535-5.885 1.636-.371 3.097-1.461 3.879-3.076 31.084-64.452 55.335-96.06 55.572-151.539.206-46.631-19.673-97.027-63.515-118.038 5.896.772 11.966 2.511 18.13 5.33 44.932 20.546 65.284 71.591 65.089 118.778z"/><path d="m339.164 427.767-21.227 55.305c-8.128 17.841-25.774 28.594-44.429 28.594-5.289 0-10.67-.864-15.938-2.686-2.788-.967-5.433-2.161-7.923-3.57 1.389.123 2.778.185 4.167.185 18.654 0 36.3-10.752 44.418-28.594l21.227-55.304c1.41-3.097-.195-6.739-3.437-7.789l19.704 6.081c3.243 1.038 4.848 4.68 3.438 7.778z"/></g></g></g></svg>